<?xml version="1.0" encoding="UTF-8" standalone="no"?>
<!-- Created with Inkscape (http://www.inkscape.org/) -->

<svg
   xmlns:dc="http://purl.org/dc/elements/1.1/"
   xmlns:cc="http://creativecommons.org/ns#"
   xmlns:rdf="http://www.w3.org/1999/02/22-rdf-syntax-ns#"
   xmlns:svg="http://www.w3.org/2000/svg"
   xmlns="http://www.w3.org/2000/svg"
   xmlns:sodipodi="http://sodipodi.sourceforge.net/DTD/sodipodi-0.dtd"
   xmlns:inkscape="http://www.inkscape.org/namespaces/inkscape"
   width="512"
   height="512"
   viewBox="0 0 135.46666 135.46667"
   version="1.1"
   id="svg8"
   inkscape:version="0.92.3 (2405546, 2018-03-11)"
   sodipodi:docname="logo.svg"
   inkscape:export-filename="/home/anxhelo/ungoogled-lineage-assets/icon.png"
   inkscape:export-xdpi="96"
   inkscape:export-ydpi="96">
  <title
     id="title1093">Ungoogled-Lineage Logo</title>
  <defs
     id="defs2">
    <clipPath
       id="_clipPath_IWweQhD37usYss0xcks7VYPOa4qPOWa5">
      <rect
         id="rect870"
         height="10"
         width="104"
         x="0"
         y="0" />
    </clipPath>
  </defs>
  <sodipodi:namedview
     id="base"
     pagecolor="#ffffff"
     bordercolor="#666666"
     borderopacity="1.0"
     inkscape:pageopacity="0.0"
     inkscape:pageshadow="2"
     inkscape:zoom="0.35"
     inkscape:cx="663.51792"
     inkscape:cy="521.24188"
     inkscape:document-units="mm"
     inkscape:current-layer="layer1"
     showgrid="false"
     inkscape:window-width="1366"
     inkscape:window-height="718"
     inkscape:window-x="0"
     inkscape:window-y="0"
     inkscape:window-maximized="1"
     units="px"
     inkscape:snap-page="true" />
  <metadata
     id="metadata5">
    <rdf:RDF>
      <cc:Work
         rdf:about="">
        <dc:format>image/svg+xml</dc:format>
        <dc:type
           rdf:resource="http://purl.org/dc/dcmitype/StillImage" />
        <dc:title>Ungoogled-Lineage Logo</dc:title>
        <dc:date>27 Oct 2018</dc:date>
        <dc:creator>
          <cc:Agent>
            <dc:title>Anxhelo Lushka</dc:title>
          </cc:Agent>
        </dc:creator>
        <cc:license
           rdf:resource="http://creativecommons.org/licenses/by-nc-sa/4.0/" />
      </cc:Work>
      <cc:License
         rdf:about="http://creativecommons.org/licenses/by-nc-sa/4.0/">
        <cc:permits
           rdf:resource="http://creativecommons.org/ns#Reproduction" />
        <cc:permits
           rdf:resource="http://creativecommons.org/ns#Distribution" />
        <cc:requires
           rdf:resource="http://creativecommons.org/ns#Notice" />
        <cc:requires
           rdf:resource="http://creativecommons.org/ns#Attribution" />
        <cc:prohibits
           rdf:resource="http://creativecommons.org/ns#CommercialUse" />
        <cc:permits
           rdf:resource="http://creativecommons.org/ns#DerivativeWorks" />
        <cc:requires
           rdf:resource="http://creativecommons.org/ns#ShareAlike" />
      </cc:License>
    </rdf:RDF>
  </metadata>
  <g
     inkscape:label="Layer 1"
     inkscape:groupmode="layer"
     id="layer1"
     transform="translate(0,-161.53332)">
    <g
       style="isolation:isolate"
       id="g892"
       transform="matrix(3.4737515,0,0,3.4737515,-8.4153876,161.40844)">
      <g
         id="g879"
         clip-path="url(#_clipPath_IWweQhD37usYss0xcks7VYPOa4qPOWa5)" />
    </g>
    <g
       id="g1082"
       inkscape:export-xdpi="96"
       inkscape:export-ydpi="96"
       transform="matrix(1.5124399,0,0,1.5124399,-64.639818,0.41355132)">
      <g
         transform="matrix(0.26398917,-0.01772167,-0.01772167,-0.26398917,129.27507,127.54285)"
         id="g1010">
        <path
           style="opacity:1;fill:#999999;fill-opacity:1;stroke:none;stroke-width:17.00787354;stroke-linecap:round;stroke-linejoin:round;stroke-miterlimit:4;stroke-dasharray:none;stroke-opacity:1;paint-order:normal"
           d="m 295.76172,454.2832 c -13.86942,0.10763 -26.45149,9.12998 -30.73242,22.78516 -4.90182,15.61519 2.57034,32.42745 17.43359,39.26953 14.87247,6.8328 32.50386,1.55052 41.15625,-12.33789 11.14044,4.86465 21.86214,10.63024 32.07422,17.24023 -14.14885,22.90687 -12.55563,51.81477 3.13281,72.91211 l -0.0898,-0.0937 c -9.55765,7.08554 -19.64925,13.4033 -30.20313,18.88086 -9.5632,-13.27769 -27.50921,-17.36829 -41.89062,-9.55468 -14.37159,7.82224 -20.70038,25.0978 -14.76367,40.34961 5.18593,13.33775 18.34397,21.49736 32.18945,20.67578 1.97792,-0.11738 3.96842,-0.41717 5.95312,-0.91211 15.87768,-3.95961 26.34508,-19.10559 24.43555,-35.35352 l 1.7793,-0.91797 c 11.57246,-5.99675 22.64521,-12.91892 33.10156,-20.71094 l 0.62891,-0.71874 c 21.26396,17.32981 51.45232,19.57424 75.19336,4.91015 6.61926,10.18421 12.40435,20.88837 17.29687,32.01953 -11.77174,7.18558 -17.71434,21.01859 -14.8457,34.50782 2.86869,13.48919 13.94426,23.69164 27.61914,25.46484 13.67488,1.7732 26.98793,-5.28357 33.18945,-17.59375 6.2201,-12.31021 3.98306,-27.20996 -5.56054,-37.16211 -6.54509,-6.60067 -15.59763,-10.10043 -24.89063,-9.58984 l -0.79883,-1.8379 c -5.39383,-12.3937 -11.81673,-24.314 -19.19726,-35.63085 25.39092,-25.39093 25.39092,-66.55634 0,-91.94727 -25.39093,-25.39093 -66.55634,-25.39093 -91.94727,0 l -1.26172,-1.26172 c -10.95478,-7.07416 -22.46593,-13.23909 -34.41406,-18.44726 l -1.83789,-0.79688 c 0.81696,-16.33934 -10.64082,-30.74948 -26.74805,-33.63672 -2.0134,-0.3609 -4.02061,-0.52709 -6.00195,-0.51172 z m 0.22461,16.51172 c 4.16026,-10e-4 8.32107,1.58474 11.49609,4.75977 6.34077,6.34077 6.34077,16.64556 0,22.98633 -6.35006,6.35006 -16.64556,6.34076 -22.98633,0 -6.35005,-6.35006 -6.35006,-16.63627 0,-22.98633 3.17039,-3.17038 7.32998,-4.75861 11.49024,-4.75977 z m 114.92187,36.44727 c 12.4773,0.002 24.95418,4.76472 34.47461,14.28515 19.04089,19.04089 19.05063,49.90836 0.01,68.94922 -19.05017,19.05017 -49.9181,19.04089 -68.95899,0 -19.04086,-19.04086 -19.05016,-49.90882 0,-68.95898 9.52044,-9.52043 21.99731,-14.27771 34.47461,-14.27539 z m 1.25977,17.42969 c -17.26586,-10e-6 -31.7832,14.06422 -31.7832,31.33007 0,17.26586 14.51734,31.33008 31.7832,31.33008 9.31519,0 16.34795,-3.05803 21.85156,-8.78906 5.65825,-5.65825 7.41406,-13.5991 7.41406,-20.02149 0,-1.91034 -0.14573,-3.67608 -0.42773,-5.16796 h -17.06055 l 0.0742,8.56054 8.59961,-0.008 c -0.62768,4.72127 -2.22086,8.17789 -4.64062,10.59766 -2.98378,2.98377 -7.64027,6.26757 -15.81836,6.26757 -12.60826,0 -22.46875,-10.16127 -22.46875,-22.76953 0,-12.60825 9.86049,-22.76953 22.46875,-22.76953 6.80446,0 11.77146,2.67466 15.4375,6.11328 l 6.03906,-6.04101 c -5.11244,-4.88502 -11.91704,-8.63281 -21.46875,-8.63281 z m -110.04688,90.91406 c 4.16027,-0.001 8.32107,1.58473 11.4961,4.75976 6.34076,6.34077 6.34076,16.64557 0,22.98633 -6.35007,6.35007 -16.64557,6.34076 -22.98633,0 -6.35006,-6.35006 -6.35006,-16.63626 0,-22.98633 3.17038,-3.17038 7.32997,-4.75861 11.49023,-4.75976 z m 177.74805,39.09179 c 4.16026,-10e-4 8.32106,1.58474 11.49609,4.75977 6.35007,6.35006 6.34077,16.64556 0,22.98633 -6.35006,6.35006 -16.63626,6.35006 -22.98632,0 -6.35007,-6.35007 -6.35007,-16.63627 0,-22.98633 3.17038,-3.17038 7.32997,-4.75861 11.49023,-4.75977 z"
           transform="matrix(0.99775435,-0.06697954,-0.06697954,-0.99775435,-515.07913,517.71409)"
           id="rect1046"
           inkscape:connector-curvature="0" />
      </g>
      <g
         id="g1066"
         transform="matrix(0.26458333,0,0,0.26458333,27.354357,176.85407)">
        <g
           id="g1064"
           transform="translate(-7.8631413,-55.532173)">
          <g
             transform="matrix(2.6725296,2.6725296,-2.6725296,2.6725296,357.96613,-748.60231)"
             id="g1060" />
        </g>
      </g>
    </g>
    <g
       transform="matrix(1.5124399,0,0,1.5124399,-64.639818,0.41355132)"
       inkscape:export-ydpi="96"
       inkscape:export-xdpi="96"
       id="g1124">
      <g
         id="g1116"
         transform="matrix(0.26398917,-0.01772167,-0.01772167,-0.26398917,129.27507,127.54285)">
        <path
           inkscape:connector-curvature="0"
           id="path1114"
           transform="matrix(0.99775435,-0.06697954,-0.06697954,-0.99775435,-515.07913,517.71409)"
           d="m 295.76172,454.2832 c -13.86942,0.10763 -26.45149,9.12998 -30.73242,22.78516 -4.90182,15.61519 2.57034,32.42745 17.43359,39.26953 14.87247,6.8328 32.50386,1.55052 41.15625,-12.33789 11.14044,4.86465 21.86214,10.63024 32.07422,17.24023 -14.14885,22.90687 -12.55563,51.81477 3.13281,72.91211 l -0.0898,-0.0937 c -9.55765,7.08554 -19.64925,13.4033 -30.20313,18.88086 -9.5632,-13.27769 -27.50921,-17.36829 -41.89062,-9.55468 -14.37159,7.82224 -20.70038,25.0978 -14.76367,40.34961 5.18593,13.33775 18.34397,21.49736 32.18945,20.67578 1.97792,-0.11738 3.96842,-0.41717 5.95312,-0.91211 15.87768,-3.95961 26.34508,-19.10559 24.43555,-35.35352 l 1.7793,-0.91797 c 11.57246,-5.99675 22.64521,-12.91892 33.10156,-20.71094 l 0.62891,-0.71874 c 21.26396,17.32981 51.45232,19.57424 75.19336,4.91015 6.61926,10.18421 12.40435,20.88837 17.29687,32.01953 -11.77174,7.18558 -17.71434,21.01859 -14.8457,34.50782 2.86869,13.48919 13.94426,23.69164 27.61914,25.46484 13.67488,1.7732 26.98793,-5.28357 33.18945,-17.59375 6.2201,-12.31021 3.98306,-27.20996 -5.56054,-37.16211 -6.54509,-6.60067 -15.59763,-10.10043 -24.89063,-9.58984 l -0.79883,-1.8379 c -5.39383,-12.3937 -11.81673,-24.314 -19.19726,-35.63085 25.39092,-25.39093 25.39092,-66.55634 0,-91.94727 -25.39093,-25.39093 -66.55634,-25.39093 -91.94727,0 l -1.26172,-1.26172 c -10.95478,-7.07416 -22.46593,-13.23909 -34.41406,-18.44726 l -1.83789,-0.79688 c 0.81696,-16.33934 -10.64082,-30.74948 -26.74805,-33.63672 -2.0134,-0.3609 -4.02061,-0.52709 -6.00195,-0.51172 z m 0.22461,16.51172 c 4.16026,-10e-4 8.32107,1.58474 11.49609,4.75977 6.34077,6.34077 6.34077,16.64556 0,22.98633 -6.35006,6.35006 -16.64556,6.34076 -22.98633,0 -6.35005,-6.35006 -6.35006,-16.63627 0,-22.98633 3.17039,-3.17038 7.32998,-4.75861 11.49024,-4.75977 z m 114.92187,36.44727 c 12.4773,0.002 24.95418,4.76472 34.47461,14.28515 19.04089,19.04089 19.05063,49.90836 0.01,68.94922 -19.05017,19.05017 -49.9181,19.04089 -68.95899,0 -19.04086,-19.04086 -19.05016,-49.90882 0,-68.95898 9.52044,-9.52043 21.99731,-14.27771 34.47461,-14.27539 z m 1.25977,17.42969 c -17.26586,-10e-6 -31.7832,14.06422 -31.7832,31.33007 0,17.26586 14.51734,31.33008 31.7832,31.33008 9.31519,0 16.34795,-3.05803 21.85156,-8.78906 5.65825,-5.65825 7.41406,-13.5991 7.41406,-20.02149 0,-1.91034 -0.14573,-3.67608 -0.42773,-5.16796 h -17.06055 l 0.0742,8.56054 8.59961,-0.008 c -0.62768,4.72127 -2.22086,8.17789 -4.64062,10.59766 -2.98378,2.98377 -7.64027,6.26757 -15.81836,6.26757 -12.60826,0 -22.46875,-10.16127 -22.46875,-22.76953 0,-12.60825 9.86049,-22.76953 22.46875,-22.76953 6.80446,0 11.77146,2.67466 15.4375,6.11328 l 6.03906,-6.04101 c -5.11244,-4.88502 -11.91704,-8.63281 -21.46875,-8.63281 z m -110.04688,90.91406 c 4.16027,-0.001 8.32107,1.58473 11.4961,4.75976 6.34076,6.34077 6.34076,16.64557 0,22.98633 -6.35007,6.35007 -16.64557,6.34076 -22.98633,0 -6.35006,-6.35006 -6.35006,-16.63626 0,-22.98633 3.17038,-3.17038 7.32997,-4.75861 11.49023,-4.75976 z m 177.74805,39.09179 c 4.16026,-10e-4 8.32106,1.58474 11.49609,4.75977 6.35007,6.35006 6.34077,16.64556 0,22.98633 -6.35006,6.35006 -16.63626,6.35006 -22.98632,0 -6.35007,-6.35007 -6.35007,-16.63627 0,-22.98633 3.17038,-3.17038 7.32997,-4.75861 11.49023,-4.75977 z"
           style="opacity:1;fill:#999999;fill-opacity:1;stroke:none;stroke-width:17.00787354;stroke-linecap:round;stroke-linejoin:round;stroke-miterlimit:4;stroke-dasharray:none;stroke-opacity:1;paint-order:normal" />
      </g>
      <g
         transform="matrix(0.26458333,0,0,0.26458333,27.354357,176.85407)"
         id="g1122">
        <g
           transform="translate(-7.8631413,-55.532173)"
           id="g1120">
          <g
             id="g1118"
             transform="matrix(2.6725296,2.6725296,-2.6725296,2.6725296,357.96613,-748.60231)" />
        </g>
      </g>
    </g>
  </g>
</svg>
