<?xml version="1.0" encoding="UTF-8" standalone="no"?>
<!-- Created with Inkscape (http://www.inkscape.org/) -->

<svg
   xmlns:dc="http://purl.org/dc/elements/1.1/"
   xmlns:cc="http://creativecommons.org/ns#"
   xmlns:rdf="http://www.w3.org/1999/02/22-rdf-syntax-ns#"
   xmlns:svg="http://www.w3.org/2000/svg"
   xmlns="http://www.w3.org/2000/svg"
   xmlns:sodipodi="http://sodipodi.sourceforge.net/DTD/sodipodi-0.dtd"
   xmlns:inkscape="http://www.inkscape.org/namespaces/inkscape"
   width="512"
   height="512"
   viewBox="0 0 135.46666 135.46667"
   version="1.1"
   id="svg8"
   inkscape:version="0.92.3 (2405546, 2018-03-11)"
   sodipodi:docname="logo.svg"
   inkscape:export-filename="/home/anxhelo/ungoogled-lineage-assets/icon.png"
   inkscape:export-xdpi="96"
   inkscape:export-ydpi="96">
  <title
     id="title1093">Ungoogled-Lineage Logo</title>
  <defs
     id="defs2">
    <clipPath
       id="_clipPath_IWweQhD37usYss0xcks7VYPOa4qPOWa5">
      <rect
         id="rect870"
         height="10"
         width="104"
         x="0"
         y="0" />
    </clipPath>
  </defs>
  <sodipodi:namedview
     id="base"
     pagecolor="#ffffff"
     bordercolor="#666666"
     borderopacity="1.0"
     inkscape:pageopacity="0.0"
     inkscape:pageshadow="2"
     inkscape:zoom="0.35"
     inkscape:cx="622.79125"
     inkscape:cy="170.38382"
     inkscape:document-units="mm"
     inkscape:current-layer="layer1"
     showgrid="false"
     inkscape:window-width="1366"
     inkscape:window-height="718"
     inkscape:window-x="0"
     inkscape:window-y="0"
     inkscape:window-maximized="1"
     units="px"
     inkscape:snap-page="true" />
  <metadata
     id="metadata5">
    <rdf:RDF>
      <cc:Work
         rdf:about="">
        <dc:format>image/svg+xml</dc:format>
        <dc:type
           rdf:resource="http://purl.org/dc/dcmitype/StillImage" />
        <dc:title>Ungoogled-Lineage Logo</dc:title>
        <dc:date>27 Oct 2018</dc:date>
        <dc:creator>
          <cc:Agent>
            <dc:title>Anxhelo Lushka</dc:title>
          </cc:Agent>
        </dc:creator>
        <cc:license
           rdf:resource="http://creativecommons.org/licenses/by-nc-sa/4.0/" />
      </cc:Work>
      <cc:License
         rdf:about="http://creativecommons.org/licenses/by-nc-sa/4.0/">
        <cc:permits
           rdf:resource="http://creativecommons.org/ns#Reproduction" />
        <cc:permits
           rdf:resource="http://creativecommons.org/ns#Distribution" />
        <cc:requires
           rdf:resource="http://creativecommons.org/ns#Notice" />
        <cc:requires
           rdf:resource="http://creativecommons.org/ns#Attribution" />
        <cc:prohibits
           rdf:resource="http://creativecommons.org/ns#CommercialUse" />
        <cc:permits
           rdf:resource="http://creativecommons.org/ns#DerivativeWorks" />
        <cc:requires
           rdf:resource="http://creativecommons.org/ns#ShareAlike" />
      </cc:License>
    </rdf:RDF>
  </metadata>
  <g
     inkscape:label="Layer 1"
     inkscape:groupmode="layer"
     id="layer1"
     transform="translate(0,-161.53332)">
    <g
       id="g974"
       transform="translate(-167.68415,2.6517897)"
       style="fill:#4d4d4d">
      <g
         transform="matrix(3.4737515,0,0,3.4737515,-8.4153876,161.40844)"
         id="g892"
         style="isolation:isolate;fill:#4d4d4d">
        <g
           clip-path="url(#_clipPath_IWweQhD37usYss0xcks7VYPOa4qPOWa5)"
           id="g879"
           style="fill:#4d4d4d" />
      </g>
      <g
         transform="matrix(1.5124399,0,0,1.5124399,-64.639818,0.41355132)"
         inkscape:export-ydpi="96"
         inkscape:export-xdpi="96"
         id="g1082"
         style="fill:#4d4d4d">
        <g
           id="g1010"
           transform="matrix(0.26398917,-0.01772167,-0.01772167,-0.26398917,129.27507,127.54285)"
           style="fill:#4d4d4d" />
        <g
           transform="matrix(0.26458333,0,0,0.26458333,27.354357,176.85407)"
           id="g1066"
           style="fill:#4d4d4d">
          <g
             transform="translate(-7.8631413,-55.532173)"
             id="g1064"
             style="fill:#4d4d4d">
            <g
               id="g1060"
               transform="matrix(2.6725296,2.6725296,-2.6725296,2.6725296,357.96613,-748.60231)"
               style="fill:#4d4d4d" />
          </g>
        </g>
      </g>
      <g
         id="g1124"
         inkscape:export-xdpi="96"
         inkscape:export-ydpi="96"
         transform="matrix(1.5124399,0,0,1.5124399,-64.639818,0.41355132)"
         style="fill:#4d4d4d">
        <g
           transform="matrix(0.26398917,-0.01772167,-0.01772167,-0.26398917,129.27507,127.54285)"
           id="g1116"
           style="fill:#4d4d4d">
          <path
             id="path941"
             transform="matrix(0.65969851,-0.04428575,-0.04428575,-0.65969851,-321.01236,101.14818)"
             d="m 750.68359,57.916016 c -20.97667,0.162784 -40.00581,13.808298 -46.48047,34.460937 -7.41367,23.617037 3.88741,49.044347 26.36719,59.392577 22.49371,10.3342 49.15988,2.3452 62.2461,-18.66015 16.84924,7.35746 33.06461,16.07895 48.50976,26.07617 -21.39929,34.64526 -18.98953,78.36693 4.73828,110.27539 l -0.13476,-0.14258 c -14.45537,10.71645 -29.71954,20.27215 -45.68164,28.55664 -14.46377,-20.08171 -41.60446,-26.26878 -63.35547,-14.45117 -21.73617,11.83066 -31.309,37.95795 -22.33008,61.02539 7.84341,20.17254 27.74509,32.51407 48.68555,31.27148 2.99149,-0.17747 6.00216,-0.63033 9.0039,-1.3789 24.01403,-5.98866 39.84509,-28.89669 36.95703,-53.47071 l 2.68946,-1.38867 c 17.50266,-9.06973 34.24984,-19.53925 50.06445,-31.32422 l 0.95117,-1.08593 c 32.16045,26.21029 77.8197,29.60434 113.72656,7.42578 10.01127,15.40301 18.76046,31.59252 26.16018,48.42773 -17.80413,10.86776 -26.79178,31.78975 -22.45314,52.19141 4.33872,20.40158 21.08904,35.83182 41.77144,38.51367 20.6825,2.68187 40.8179,-7.99097 50.1973,-26.60938 9.4075,-18.61845 6.024,-41.15305 -8.4102,-56.20507 -9.8987,-9.98313 -23.5894,-15.27614 -37.6445,-14.50391 l -1.209,-2.78125 c -8.1578,-18.74472 -17.8725,-36.77262 -29.03512,-53.88867 38.40222,-38.40226 38.40222,-100.6622 0,-139.06446 -38.40225,-38.40222 -100.66221,-38.40222 -139.06446,0 l -1.9082,-1.9082 c -16.56845,-10.69924 -33.97799,-20.02335 -52.04883,-27.90039 l -2.77929,-1.20508 c 1.2356,-24.712258 -16.09387,-46.50822 -40.45508,-50.874997 -3.04515,-0.545839 -6.08147,-0.796685 -9.07813,-0.773437 z m 0.33985,24.972656 c 6.29215,-0.0015 12.58469,2.397176 17.38672,7.199219 9.59003,9.590033 9.59003,25.175589 0,34.765629 -9.6041,9.60408 -25.17559,9.59001 -34.76563,0 -9.60407,-9.60409 -9.60408,-25.161546 0,-34.765629 4.79502,-4.795009 11.08677,-7.197465 17.37891,-7.199219 z m 173.8125,55.124998 c 18.87117,0.003 37.74154,7.20639 52.14062,21.60547 28.79824,28.7982 28.81344,75.4831 0.0156,104.28125 -28.81224,28.81224 -75.49868,28.7982 -104.29688,0 -28.79816,-28.79815 -28.81222,-75.48465 0,-104.29687 14.39909,-14.39908 33.26945,-21.59336 52.14063,-21.58985 z M 760.30273,301.87695 c 6.29217,-0.002 12.58468,2.39718 17.38672,7.19922 9.59002,9.59005 9.59002,25.17561 0,34.76563 -9.6041,9.60409 -25.1756,9.59001 -34.76562,0 -9.60408,-9.60408 -9.60409,-25.16152 0,-34.76563 4.79501,-4.79501 11.08677,-7.19747 17.3789,-7.19922 z m 268.83207,59.125 c 6.2921,-0.002 12.5846,2.39523 17.3867,7.19727 9.6041,9.60409 9.59,25.17559 0,34.76562 -9.6041,9.60409 -25.1596,9.60408 -34.7637,0 -9.6041,-9.6041 -9.6041,-25.16154 0,-34.76562 4.795,-4.79501 11.0848,-7.19552 17.377,-7.19727 z"
             style="opacity:1;fill:#4d4d4d;fill-opacity:1;stroke:none;stroke-width:25.72338676;stroke-linecap:round;stroke-linejoin:round;stroke-miterlimit:4;stroke-dasharray:none;stroke-opacity:1;paint-order:normal"
             inkscape:connector-curvature="0" />
        </g>
        <g
           id="g1122"
           transform="matrix(0.26458333,0,0,0.26458333,27.354357,176.85407)"
           style="fill:#4d4d4d">
          <g
             id="g1120"
             transform="translate(-7.8631413,-55.532173)"
             style="fill:#4d4d4d">
            <g
               transform="matrix(2.6725296,2.6725296,-2.6725296,2.6725296,357.96613,-748.60231)"
               id="g1118"
               style="fill:#4d4d4d" />
          </g>
        </g>
      </g>
      <g
         transform="matrix(0.26009668,0,0,0.26009668,176.08708,240.92683)"
         id="g927"
         style="fill:#4d4d4d">
        <path
           sodipodi:nodetypes="cccscsssccsssccc"
           style="fill:#4d4d4d;fill-opacity:1;stroke:#4d4d4d;stroke-width:7.68944836;stroke-linecap:round;stroke-linejoin:miter;stroke-miterlimit:4;stroke-dasharray:none;stroke-opacity:1;paint-order:fill markers stroke"
           inkscape:connector-curvature="0"
           d="m 283.80054,-80.654646 -0.0984,-13.092956 26.80613,-0.196204 c 0.4378,2.316071 0.66376,5.055812 0.66376,8.021511 0,9.970401 -2.72562,22.299239 -11.50974,31.083359 -8.54404,8.897099 -19.46064,13.642219 -33.92196,13.642219 -26.80428,0 -49.3436,-21.833199 -49.3436,-48.637476 0,-26.804277 22.53932,-48.637477 49.3436,-48.637477 14.8285,0 25.39204,5.81842 33.32882,13.40214 l -9.37726,9.37726 c -5.69132,-5.33826 -13.40214,-9.49025 -23.96568,-9.49025 -19.57362,0 -34.88228,15.7747 -34.88228,35.348327 0,19.573618 15.30866,35.348316 34.88228,35.348316 12.69602,0 19.92667,-5.098179 24.55881,-9.730319 3.75657,-3.756554 6.22798,-9.123058 7.20243,-16.452573 z"
           id="path911" />
      </g>
      <g
         id="g945"
         transform="matrix(0.26009668,0,0,0.26009668,105.34782,183.42213)"
         style="fill:#4d4d4d" />
    </g>
  </g>
</svg>
